<svg width="35" height="31" viewBox="0 0 35 31" fill="none" xmlns="http://www.w3.org/2000/svg">
<path d="M5.08765 13.5669C6.10864 13.2126 8.44793 12.719 10.1753 12.719L14.4149 12.719L12.0214 0.751139C11.9436 0.362548 12.2409 -1.02164e-06 12.6371 -1.00432e-06C13.7401 -9.56108e-07 14.7621 0.57868 15.3296 1.52444L22.0463 12.719L23.7422 12.719L27.323 12.719C29.4292 12.719 31.5064 13.2094 33.3903 14.1513L33.7931 14.3527C34.543 14.7277 34.543 15.7979 33.7931 16.1729L33.3903 16.3743C31.5064 17.3162 29.4292 17.8066 27.323 17.8066L23.7422 17.8066L22.0463 17.8066L15.3296 29.0012C14.7621 29.947 14.1142 30.5256 13.0113 30.5256C12.615 30.5256 11.9436 30.1631 12.0214 29.7745L14.4149 17.8066L10.1753 17.8066C8.44793 17.8066 6.10864 17.313 5.08765 16.9587L3.18938 20.1225C2.77282 20.8167 2.12165 21.3391 1.35355 21.5951L1.17236 21.6555C0.66455 21.8248 0.169929 21.3668 0.299754 20.8475L1.69591 15.2628L0.299755 9.67817C0.169929 9.15888 0.66455 8.70084 1.17236 8.87011L1.35355 8.93051C2.12165 9.18654 2.77282 9.70889 3.18938 10.4032L5.08765 13.5669Z" fill="#313131"/>
</svg>
