<svg width="24" height="24" viewBox="0 0 24 24" fill="none" xmlns="http://www.w3.org/2000/svg">
<path d="M20.4853 14.57C19.1561 13.2408 17.5698 12.2625 15.8388 11.68C17.4351 10.5002 18.4724 8.60522 18.4724 6.47236C18.4724 2.90348 15.5689 0 12 0C8.43108 0 5.52759 2.90348 5.52759 6.47236C5.52759 8.60527 6.56484 10.5002 8.16117 11.68C6.43017 12.2624 4.84392 13.2408 3.51469 14.57C1.24823 16.8365 0 19.85 0 23.0553C0 23.577 0.422953 24 0.944719 24H23.0552C23.577 24 24 23.577 24 23.0553C24 19.85 22.7518 16.8365 20.4853 14.57ZM7.41712 6.47236C7.41712 3.94533 9.47297 1.88948 12 1.88948C14.5271 1.88948 16.583 3.94533 16.583 6.47236C16.583 8.99939 14.5271 11.0552 12 11.0552C9.47297 11.0553 7.41712 8.99939 7.41712 6.47236ZM1.93327 22.1105C2.41111 16.9768 6.74358 12.9447 12 12.9447C17.2564 12.9447 21.5889 16.9768 22.0667 22.1105H1.93327Z" />
</svg>
