<svg width="24" height="20" viewBox="0 0 24 20" fill="none" xmlns="http://www.w3.org/2000/svg">
<path d="M22.4645 9.02219C21.3213 7.87895 19.7769 7.3758 18.2804 7.51234V2.26562C18.2804 1.10252 17.3341 0.15625 16.1711 0.15625H2.07825C0.978797 0.15625 0 1.08058 0 2.26562V16.3281C0 17.4912 0.946219 18.4375 2.10928 18.4375C16.6927 18.3891 16.2546 18.5532 16.9235 18.298L18.2633 19.6378C18.5379 19.9124 18.9831 19.9124 19.2576 19.6378L22.4646 16.4307C24.5117 14.3834 24.512 11.0697 22.4645 9.02219ZM7.78088 1.5625H10.5932V5.07812H7.78088V1.5625ZM2.10928 17.0312C1.72158 17.0312 1.4062 16.7158 1.4062 16.3281V2.26562C1.4062 1.87792 1.72163 1.5625 2.10928 1.5625H6.37472V5.78125C6.37472 6.16956 6.68948 6.48438 7.0778 6.48438H11.2964C11.6847 6.48438 11.9994 6.16956 11.9994 5.78125V1.5625H16.1711C16.5588 1.5625 16.8742 1.87792 16.8742 2.26562V7.83972C16.2113 8.09453 15.5901 8.48847 15.0564 9.02219C13.014 11.0647 13.014 14.3882 15.0564 16.4307L15.6568 17.0312H2.10928ZM21.4702 15.4364L18.7604 18.1463L16.0506 15.4364C14.553 13.9386 14.5528 11.5145 16.0506 10.0165C17.5448 8.52231 19.9759 8.52227 21.4702 10.0165C22.9678 11.5142 22.968 13.9384 21.4702 15.4364Z" />
<path d="M18.7844 10.5017C17.549 10.5017 16.5439 11.5068 16.5439 12.7423C16.5439 13.9778 17.549 14.983 18.7844 14.983C20.0199 14.983 21.0249 13.9779 21.0249 12.7423C21.0249 11.5069 20.0198 10.5017 18.7844 10.5017ZM18.7844 13.5768C18.3244 13.5768 17.9501 13.2025 17.9501 12.7423C17.9501 12.2823 18.3244 11.908 18.7844 11.908C19.2445 11.908 19.6188 12.2823 19.6188 12.7423C19.6187 13.2024 19.2445 13.5768 18.7844 13.5768Z"/>
</svg>
