<svg width="18" height="18" viewBox="0 0 18 18" fill="none" xmlns="http://www.w3.org/2000/svg">
<path fill-rule="evenodd" clip-rule="evenodd" d="M2.9025 2.9025C-0.0785026 5.8835 -0.0785026 10.7167 2.9025 13.6977C5.8835 16.6787 10.7167 16.6787 13.6977 13.6977C16.6787 10.7167 16.6787 5.8835 13.6977 2.9025C10.7167 -0.0785025 5.8835 -0.0785025 2.9025 2.9025ZM4.08101 4.08101C6.41114 1.75088 10.189 1.75088 12.5192 4.08101C14.8493 6.41114 14.8493 10.189 12.5192 12.5192C10.189 14.8493 6.41114 14.8493 4.08101 12.5192C1.75088 10.189 1.75088 6.41114 4.08101 4.08101Z" fill="#92929D"/>
<path d="M17.412 15.9021L13.9708 12.4609C13.1851 11.6752 12.0066 12.8538 12.7923 13.6394L16.2335 17.0807C17.0192 17.8663 18.1977 16.6878 17.412 15.9021Z" fill="#92929D"/>
</svg>
