<svg width="24" height="22" viewBox="0 0 24 22" fill="none" xmlns="http://www.w3.org/2000/svg">
<path d="M18.926 9.38443V2.15333C18.926 1.22974 18.1976 0.478271 17.3023 0.478271H2.62375C1.72845 0.478271 1 1.22974 1 2.15333V17.2957C1 18.2194 1.72845 18.9707 2.62375 18.9707H12.0765C13.1785 20.5166 14.9533 21.5217 16.9516 21.5217C20.2868 21.5217 23 18.7228 23 15.2823C23 12.5546 21.2945 10.2306 18.926 9.38443ZM8.36847 1.84183H11.5576V5.6056L10.2082 5.04944C10.0508 4.98468 9.87523 4.98468 9.71779 5.04944L8.36847 5.6056V1.84183ZM2.62375 17.6072C2.45724 17.6072 2.32179 17.4674 2.32179 17.2957V2.15333C2.32179 1.98156 2.45724 1.84183 2.62375 1.84183H7.04684V6.61229C7.04684 6.83843 7.15561 7.04985 7.33705 7.17676C7.51866 7.30351 7.74928 7.32931 7.95288 7.24533L9.96301 6.41681L11.9733 7.24533C12.0524 7.27788 12.1356 7.29399 12.2184 7.29399C12.3486 7.29399 12.478 7.25416 12.5891 7.17676C12.7706 7.04985 12.8793 6.83843 12.8793 6.61229V1.84183H17.3023C17.4688 1.84183 17.6042 1.98156 17.6042 2.15333V9.07917C17.3899 9.05527 17.1722 9.04281 16.9516 9.04281C13.6165 9.04281 10.9033 11.8418 10.9033 15.2823C10.9033 16.1037 11.0582 16.8882 11.339 17.6072H2.62375ZM16.9516 20.1582C14.3453 20.1582 12.2251 17.9708 12.2251 15.2823C12.2251 12.5936 14.3453 10.4064 16.9516 10.4064C19.5578 10.4064 21.6782 12.5936 21.6782 15.2823C21.6782 17.9708 19.5578 20.1582 16.9516 20.1582Z" />
<path d="M19.4604 14.442H17.6453V12.6269C17.6453 12.2567 17.3452 11.9565 16.9749 11.9565C16.6048 11.9565 16.3047 12.2567 16.3047 12.6269V15.1124C16.3047 15.4825 16.6048 15.7826 16.9749 15.7826H19.4604C19.8306 15.7826 20.1308 15.4825 20.1308 15.1124C20.1308 14.7421 19.8306 14.442 19.4604 14.442Z" />
</svg>
