<svg
        width="42"
        height="20"
        viewBox="0 0 42 20"
        fill="none"
        xmlns="http://www.w3.org/2000/svg"
      >
        <path
          d="M22.2142 0.0224609H16.1378C15.4569 0.0224609 14.9028 0.576499 14.9028 1.25744V3.94543C14.9028 4.02541 14.9111 4.10326 14.9256 4.17906H17.2446C18.0077 4.17906 18.6955 4.50628 19.1761 5.02734C19.6566 4.50628 20.3444 4.17906 21.1075 4.17906H23.4264C23.441 4.10326 23.4492 4.02541 23.4492 3.94543V1.25744C23.4492 0.576499 22.8952 0.0224609 22.2142 0.0224609Z"
          fill="black"
        />
        <path
          d="M32.1531 0.0224609H26.0769C25.3958 0.0224609 24.8418 0.576499 24.8418 1.25744V3.94543C24.8418 4.02541 24.8501 4.10326 24.8646 4.17906H27.1835C27.9466 4.17906 28.6344 4.50628 29.1149 5.02734C29.5954 4.50628 30.2832 4.17906 31.0464 4.17906H33.3653C33.3799 4.10326 33.3881 4.02541 33.3881 3.94543V1.25744C33.3881 0.576499 32.8341 0.0224609 32.1531 0.0224609Z"
          fill="black"
        />
        <path
          d="M17.2445 5.57178H11.1681C10.4871 5.57178 9.93311 6.12582 9.93311 6.80676V8.81865H18.4795V6.80676C18.4795 6.12582 17.9255 5.57178 17.2445 5.57178Z"
          fill="black"
        />
        <path
          d="M27.1835 5.57178H21.107C20.4261 5.57178 19.8721 6.12582 19.8721 6.80676V8.81865H28.4185V6.80676C28.4185 6.12582 27.8644 5.57178 27.1835 5.57178Z"
          fill="black"
        />
        <path
          d="M37.123 5.57178H31.0467C30.3656 5.57178 29.8115 6.12582 29.8115 6.80676V8.81865H38.3579V6.80676C38.3579 6.12582 37.8039 5.57178 37.123 5.57178Z"
          fill="black"
        />
        <path
          d="M2.00684 17.0919V19.3018C2.00684 19.6749 2.30928 19.9774 2.68244 19.9774H35.6243C35.9906 19.9774 36.2903 19.6854 36.2996 19.3192L36.3321 18.0553L37.1161 17.092H2.00684V17.0919Z"
          fill="black"
        />
        <path
          d="M41.5381 10.2116H6.05157V10.2115V8.81869V8.14358C6.05157 7.37437 5.42796 6.75085 4.65884 6.75085C3.88964 6.75085 3.26612 7.37445 3.26612 8.14358V8.81869V10.2114H0.888364C0.0915141 10.4065 -0.292884 11.395 0.260252 12.0846L2.00678 14.2621V15.6991H38.2497L41.8472 11.2787C42.158 10.897 41.9643 10.3519 41.5381 10.2116Z"
          fill="black"
        />
      </svg>