<svg width="127" height="98" viewBox="0 0 127 98" fill="none" xmlns="http://www.w3.org/2000/svg">
<mask id="mask0" mask-type="alpha" maskUnits="userSpaceOnUse" x="5" y="4" width="118" height="89">
<path d="M6.94962 27.0847C8.40044 15.6158 17.8091 7.33417 29.33 6.37973C38.6913 5.60419 50.7799 4.90125 63.8448 4.90125C76.9097 4.90125 88.9983 5.60419 98.3596 6.37973C109.88 7.33417 119.289 15.6158 120.74 27.0847C121.52 33.253 122.122 40.6061 122.122 48.6095C122.122 56.6129 121.52 63.9659 120.74 70.1342C119.289 81.6032 109.88 89.8848 98.3596 90.8392C88.9983 91.6148 76.9097 92.3177 63.8448 92.3177C50.7799 92.3177 38.6913 91.6148 29.33 90.8392C17.8091 89.8848 8.40044 81.6032 6.94962 70.1342C6.16934 63.9659 5.56714 56.6129 5.56714 48.6095C5.56714 40.6061 6.16934 33.253 6.94962 27.0847Z" fill="#00D0BF"/>
</mask>
<g mask="url(#mask0)">
<rect x="122.123" y="92.3176" width="116.555" height="87.4165" transform="rotate(-180 122.123 92.3176)" fill="#EE5757"/>
<path d="M29.8497 14.614L33.1207 24.6812L43.706 24.6812L35.1423 30.9031L38.4134 40.9703L29.8497 34.7484L21.286 40.9703L24.557 30.9031L15.9934 24.6812L26.5786 24.6812L29.8497 14.614Z" fill="#FCD95E"/>
<path d="M48.0613 9.75757L48.8791 12.2744L51.5254 12.2744L49.3845 13.8298L50.2022 16.3466L48.0613 14.7912L45.9204 16.3466L46.7381 13.8298L44.5972 12.2744L47.2435 12.2744L48.0613 9.75757Z" fill="#FCD95E"/>
<path d="M48.0613 38.8964L48.8791 41.4132L51.5254 41.4132L49.3845 42.9686L50.2022 45.4854L48.0613 43.93L45.9204 45.4854L46.7381 42.9686L44.5972 41.4132L47.2435 41.4132L48.0613 38.8964Z" fill="#FCD95E"/>
<path d="M48.0613 38.8964L48.8791 41.4132L51.5254 41.4132L49.3845 42.9686L50.2022 45.4854L48.0613 43.93L45.9204 45.4854L46.7381 42.9686L44.5972 41.4132L47.2435 41.4132L48.0613 38.8964Z" fill="#FCD95E"/>
<path d="M57.7744 29.1835L58.5922 31.7003L61.2385 31.7003L59.0976 33.2557L59.9154 35.7726L57.7744 34.2171L55.6335 35.7726L56.4513 33.2557L54.3103 31.7003L56.9567 31.7003L57.7744 29.1835Z" fill="#FCD95E"/>
<path d="M57.7744 19.4706L58.5922 21.9874L61.2385 21.9874L59.0976 23.5429L59.9154 26.0597L57.7744 24.5042L55.6335 26.0597L56.4513 23.5429L54.3103 21.9874L56.9567 21.9874L57.7744 19.4706Z" fill="#FCD95E"/>
</g>
<path d="M29.1295 3.95978C16.5684 5.00041 6.14801 14.073 4.54058 26.78C3.74994 33.0302 3.1389 40.4865 3.1389 48.6095C3.1389 56.7324 3.74994 64.1888 4.54058 70.439C6.14801 83.146 16.5684 92.2186 29.1295 93.2592C38.5387 94.0387 50.6965 94.746 63.8448 94.746C76.9931 94.746 89.1508 94.0387 98.5601 93.2592C111.121 92.2186 121.542 83.146 123.149 70.439C123.94 64.1888 124.551 56.7324 124.551 48.6095C124.551 40.4865 123.94 33.0302 123.149 26.78C121.542 14.073 111.121 5.00041 98.5601 3.95978C89.1508 3.18027 76.9931 2.47301 63.8448 2.47301C50.6965 2.47301 38.5387 3.18027 29.1295 3.95978Z" stroke="#E6E6FA" stroke-width="4.85647"/>
</svg>
