<svg width="127" height="98" viewBox="0 0 127 98" fill="none" xmlns="http://www.w3.org/2000/svg">
<mask id="mask0" mask-type="alpha" maskUnits="userSpaceOnUse" x="5" y="5" width="117" height="88">
<path d="M6.64371 27.2636C8.09453 15.7946 17.5032 7.51301 29.0241 6.55856C38.3854 5.78302 50.474 5.08008 63.5389 5.08008C76.6038 5.08008 88.6924 5.78302 98.0537 6.55856C109.575 7.51301 118.983 15.7946 120.434 27.2636C121.214 33.4319 121.817 40.7849 121.817 48.7883C121.817 56.7917 121.214 64.1448 120.434 70.3131C118.983 81.782 109.575 90.0636 98.0537 91.0181C88.6924 91.7936 76.6038 92.4966 63.5389 92.4966C50.474 92.4966 38.3854 91.7936 29.0241 91.0181C17.5032 90.0636 8.09453 81.782 6.64371 70.3131C5.86343 64.1448 5.26123 56.7917 5.26123 48.7883C5.26123 40.7849 5.86343 33.4319 6.64371 27.2636Z" fill="#00D0BF"/>
</mask>
<g mask="url(#mask0)">
<rect x="121.816" y="48.7883" width="116.555" height="43.7082" transform="rotate(-180 121.816 48.7883)" fill="#EE5757"/>
<path fill-rule="evenodd" clip-rule="evenodd" d="M40.0153 10.2348C32.1512 11.7266 26.2047 18.636 26.2047 26.9342C26.2047 35.2324 32.1511 42.1417 40.0152 43.6335C38.9829 43.8293 37.9175 43.9318 36.8282 43.9318C27.4407 43.9318 19.8306 36.3217 19.8306 26.9342C19.8306 17.5466 27.4407 9.93652 36.8282 9.93652C37.9176 9.93652 38.983 10.039 40.0153 10.2348Z" fill="white"/>
<path d="M47.0676 12.3647L47.8854 14.8816L50.5317 14.8816L48.3908 16.437L49.2086 18.9538L47.0676 17.3984L44.9267 18.9538L45.7445 16.437L43.6036 14.8816L46.2499 14.8816L47.0676 12.3647Z" fill="white"/>
<path d="M38.0423 19.6495L38.86 22.1663L41.5063 22.1663L39.3654 23.7218L40.1832 26.2386L38.0423 24.6831L35.9013 26.2386L36.7191 23.7218L34.5782 22.1663L37.2245 22.1663L38.0423 19.6495Z" fill="white"/>
<path d="M42.8987 31.7906L43.7165 34.3075L46.3628 34.3075L44.2219 35.8629L45.0396 38.3797L42.8987 36.8243L40.7578 38.3797L41.5755 35.8629L39.4346 34.3075L42.0809 34.3075L42.8987 31.7906Z" fill="white"/>
<path d="M57.468 19.6495L58.2858 22.1663L60.9321 22.1663L58.7912 23.7218L59.609 26.2386L57.468 24.6831L55.3271 26.2386L56.1449 23.7218L54.004 22.1663L56.6503 22.1663L57.468 19.6495Z" fill="white"/>
<path d="M52.6116 31.7906L53.4294 34.3075L56.0757 34.3075L53.9348 35.8629L54.7525 38.3797L52.6116 36.8243L50.4707 38.3797L51.2884 35.8629L49.1475 34.3075L51.7938 34.3075L52.6116 31.7906Z" fill="white"/>
<rect x="121.816" y="92.4966" width="116.555" height="43.7082" transform="rotate(-180 121.816 92.4966)" fill="white"/>
</g>
<path d="M28.8236 4.13861C16.2625 5.17924 5.8421 14.2518 4.23467 26.9588C3.44403 33.209 2.833 40.6654 2.833 48.7883C2.833 56.9113 3.44403 64.3676 4.23468 70.6178C5.8421 83.3248 16.2625 92.3974 28.8236 93.438C38.2328 94.2175 50.3906 94.9248 63.5389 94.9248C76.6872 94.9248 88.8449 94.2175 98.2541 93.438C110.815 92.3974 121.236 83.3248 122.843 70.6178C123.634 64.3676 124.245 56.9113 124.245 48.7883C124.245 40.6653 123.634 33.209 122.843 26.9588C121.236 14.2518 110.815 5.17924 98.2541 4.13861C88.8449 3.35911 76.6872 2.65184 63.5389 2.65184C50.3906 2.65184 38.2328 3.35911 28.8236 4.13861Z" stroke="#E6E6FA" stroke-width="4.85647"/>
</svg>
