<svg width="128" height="98" viewBox="0 0 128 98" fill="none" xmlns="http://www.w3.org/2000/svg">
<mask id="mask0" mask-type="alpha" maskUnits="userSpaceOnUse" x="5" y="5" width="118" height="88">
<path d="M7.21061 27.6188C8.66142 16.1498 18.0701 7.86823 29.591 6.91378C38.9523 6.13825 51.0409 5.4353 64.1058 5.4353C77.1707 5.4353 89.2593 6.13825 98.6206 6.91378C110.141 7.86823 119.55 16.1498 121.001 27.6188C121.781 33.7871 122.383 41.1401 122.383 49.1435C122.383 57.147 121.781 64.5 121.001 70.6683C119.55 82.1373 110.141 90.4188 98.6206 91.3733C89.2593 92.1488 77.1707 92.8518 64.1058 92.8518C51.0409 92.8518 38.9523 92.1488 29.591 91.3733C18.0701 90.4188 8.66142 82.1373 7.21061 70.6683C6.43032 64.5 5.82812 57.147 5.82812 49.1435C5.82812 41.1401 6.43032 33.7871 7.21061 27.6188Z" fill="#00D0BF"/>
</mask>
<g mask="url(#mask0)">
<rect x="1.34521" y="72.6785" width="125.521" height="6.72435" fill="#EE5757"/>
<rect x="1.34521" y="65.9534" width="125.521" height="6.72435" fill="white"/>
<rect x="1.34521" y="86.1262" width="125.521" height="6.72435" fill="#EE5757"/>
<rect x="1.34521" y="59.2295" width="125.521" height="6.72435" fill="#EE5757"/>
<rect x="1.34521" y="79.4023" width="125.521" height="6.72435" fill="white"/>
<rect x="1.34521" y="52.5056" width="125.521" height="6.72435" fill="white"/>
<rect x="1.34521" y="45.7805" width="125.521" height="6.72435" fill="#EE5757"/>
<rect x="1.34521" y="39.0566" width="125.521" height="6.72435" fill="white"/>
<rect x="1.34521" y="32.3315" width="125.521" height="6.72435" fill="#EE5757"/>
<rect x="1.34521" y="25.6077" width="125.521" height="6.72435" fill="white"/>
<rect x="1.34521" y="18.8838" width="125.521" height="6.72435" fill="#EE5757"/>
<rect x="1.34521" y="12.1587" width="125.521" height="6.72435" fill="white"/>
<rect x="1.34546" y="5.43506" width="125.521" height="6.72435" fill="#EE5757"/>
<rect x="5.82812" y="5.4353" width="65.5624" height="47.0592" fill="#2E50A6"/>
<path d="M8.05726 9.07739L9.74638 14.276L5.32422 11.0631H10.7903L6.36815 14.276L8.05726 9.07739Z" fill="white"/>
<path d="M8.05726 17.6985L9.74638 22.897L5.32422 19.6842H10.7903L6.36815 22.897L8.05726 17.6985Z" fill="white"/>
<path d="M8.05726 26.3193L9.74638 31.5179L5.32422 28.305H10.7903L6.36815 31.5179L8.05726 26.3193Z" fill="white"/>
<path d="M8.05726 34.9404L9.74638 40.139L5.32422 36.9261H10.7903L6.36815 40.139L8.05726 34.9404Z" fill="white"/>
<path d="M8.05726 43.5613L9.74638 48.7598L5.32422 45.547H10.7903L6.36815 48.7598L8.05726 43.5613Z" fill="white"/>
<path d="M66.2284 9.07739L67.9175 14.276L63.4954 11.0631H68.9615L64.5393 14.276L66.2284 9.07739Z" fill="white"/>
<path d="M66.2284 17.6985L67.9175 22.897L63.4954 19.6842H68.9615L64.5393 22.897L66.2284 17.6985Z" fill="white"/>
<path d="M60.7684 13.3875L62.4576 18.586L58.0354 15.3731H63.5015L59.0793 18.586L60.7684 13.3875Z" fill="white"/>
<path d="M60.7684 22.1528L62.4576 27.3514L58.0354 24.1385H63.5015L59.0793 27.3514L60.7684 22.1528Z" fill="white"/>
<path d="M60.7684 30.9175L62.4576 36.116L58.0354 32.9032H63.5015L59.0793 36.116L60.7684 30.9175Z" fill="white"/>
<path d="M60.7684 39.6819L62.4576 44.8804L58.0354 41.6676H63.5015L59.0793 44.8804L60.7684 39.6819Z" fill="white"/>
<path d="M66.2284 26.3193L67.9175 31.5179L63.4954 28.305H68.9615L64.5393 31.5179L66.2284 26.3193Z" fill="white"/>
<path d="M66.2284 34.9404L67.9175 40.139L63.4954 36.9261H68.9615L64.5393 40.139L66.2284 34.9404Z" fill="white"/>
<path d="M66.2284 43.5613L67.9175 48.7598L63.4954 45.547H68.9615L64.5393 48.7598L66.2284 43.5613Z" fill="white"/>
<path d="M54.59 9.07739L56.2791 14.276L51.8569 11.0631H57.323L52.9009 14.276L54.59 9.07739Z" fill="white"/>
<path d="M54.59 17.6985L56.2791 22.897L51.8569 19.6842H57.323L52.9009 22.897L54.59 17.6985Z" fill="white"/>
<path d="M49.1298 13.3875L50.8189 18.586L46.3967 15.3731H51.8628L47.4407 18.586L49.1298 13.3875Z" fill="white"/>
<path d="M49.1298 22.1528L50.8189 27.3514L46.3967 24.1385H51.8628L47.4407 27.3514L49.1298 22.1528Z" fill="white"/>
<path d="M49.1298 30.9175L50.8189 36.116L46.3967 32.9032H51.8628L47.4407 36.116L49.1298 30.9175Z" fill="white"/>
<path d="M49.1298 39.6819L50.8189 44.8804L46.3967 41.6676H51.8628L47.4407 44.8804L49.1298 39.6819Z" fill="white"/>
<path d="M54.59 26.3193L56.2791 31.5179L51.8569 28.305H57.323L52.9009 31.5179L54.59 26.3193Z" fill="white"/>
<path d="M54.59 34.9404L56.2791 40.139L51.8569 36.9261H57.323L52.9009 40.139L54.59 34.9404Z" fill="white"/>
<path d="M54.59 43.5613L56.2791 48.7598L51.8569 45.547H57.323L52.9009 48.7598L54.59 43.5613Z" fill="white"/>
<path d="M42.9513 9.07739L44.6404 14.276L40.2183 11.0631H45.6844L41.2622 14.276L42.9513 9.07739Z" fill="white"/>
<path d="M42.9513 17.6985L44.6404 22.897L40.2183 19.6842H45.6844L41.2622 22.897L42.9513 17.6985Z" fill="white"/>
<path d="M37.4913 13.3875L39.1805 18.586L34.7583 15.3731H40.2244L35.8022 18.586L37.4913 13.3875Z" fill="white"/>
<path d="M37.4913 22.1528L39.1805 27.3514L34.7583 24.1385H40.2244L35.8022 27.3514L37.4913 22.1528Z" fill="white"/>
<path d="M37.4913 30.9175L39.1805 36.116L34.7583 32.9032H40.2244L35.8022 36.116L37.4913 30.9175Z" fill="white"/>
<path d="M37.4913 39.6819L39.1805 44.8804L34.7583 41.6676H40.2244L35.8022 44.8804L37.4913 39.6819Z" fill="white"/>
<path d="M42.9513 26.3193L44.6404 31.5179L40.2183 28.305H45.6844L41.2622 31.5179L42.9513 26.3193Z" fill="white"/>
<path d="M42.9513 34.9404L44.6404 40.139L40.2183 36.9261H45.6844L41.2622 40.139L42.9513 34.9404Z" fill="white"/>
<path d="M42.9513 43.5613L44.6404 48.7598L40.2183 45.547H45.6844L41.2622 48.7598L42.9513 43.5613Z" fill="white"/>
<path d="M31.3129 9.07739L33.002 14.276L28.5798 11.0631H34.0459L29.6238 14.276L31.3129 9.07739Z" fill="white"/>
<path d="M31.3129 17.6985L33.002 22.897L28.5798 19.6842H34.0459L29.6238 22.897L31.3129 17.6985Z" fill="white"/>
<path d="M25.8529 13.3875L27.542 18.586L23.1199 15.3731H28.586L24.1638 18.586L25.8529 13.3875Z" fill="white"/>
<path d="M25.8529 22.1528L27.542 27.3514L23.1199 24.1385H28.586L24.1638 27.3514L25.8529 22.1528Z" fill="white"/>
<path d="M25.8529 30.9175L27.542 36.116L23.1199 32.9032H28.586L24.1638 36.116L25.8529 30.9175Z" fill="white"/>
<path d="M25.8529 39.6819L27.542 44.8804L23.1199 41.6676H28.586L24.1638 44.8804L25.8529 39.6819Z" fill="white"/>
<path d="M31.3129 26.3193L33.002 31.5179L28.5798 28.305H34.0459L29.6238 31.5179L31.3129 26.3193Z" fill="white"/>
<path d="M31.3129 34.9404L33.002 40.139L28.5798 36.9261H34.0459L29.6238 40.139L31.3129 34.9404Z" fill="white"/>
<path d="M31.3129 43.5613L33.002 48.7598L28.5798 45.547H34.0459L29.6238 48.7598L31.3129 43.5613Z" fill="white"/>
<path d="M19.6745 9.07739L21.3636 14.276L16.9414 11.0631H22.4075L17.9853 14.276L19.6745 9.07739Z" fill="white"/>
<path d="M19.6745 17.6985L21.3636 22.897L16.9414 19.6842H22.4075L17.9853 22.897L19.6745 17.6985Z" fill="white"/>
<path d="M14.2145 13.3875L15.9036 18.586L11.4814 15.3731H16.9475L12.5254 18.586L14.2145 13.3875Z" fill="white"/>
<path d="M14.2145 22.1528L15.9036 27.3514L11.4814 24.1385H16.9475L12.5254 27.3514L14.2145 22.1528Z" fill="white"/>
<path d="M14.2145 30.9175L15.9036 36.116L11.4814 32.9032H16.9475L12.5254 36.116L14.2145 30.9175Z" fill="white"/>
<path d="M14.2145 39.6819L15.9036 44.8804L11.4814 41.6676H16.9475L12.5254 44.8804L14.2145 39.6819Z" fill="white"/>
<path d="M19.6745 26.3193L21.3636 31.5179L16.9414 28.305H22.4075L17.9853 31.5179L19.6745 26.3193Z" fill="white"/>
<path d="M19.6745 34.9404L21.3636 40.139L16.9414 36.9261H22.4075L17.9853 40.139L19.6745 34.9404Z" fill="white"/>
<path d="M19.6745 43.5613L21.3636 48.7598L16.9414 45.547H22.4075L17.9853 48.7598L19.6745 43.5613Z" fill="white"/>
</g>
<path d="M29.3905 4.49384C16.8294 5.53446 6.40899 14.607 4.80157 27.314C4.01093 33.5642 3.39989 41.0206 3.39989 49.1435C3.39989 57.2665 4.01093 64.7229 4.80157 70.973C6.409 83.68 16.8294 92.7526 29.3905 93.7932C38.7997 94.5728 50.9575 95.28 64.1058 95.28C77.2541 95.28 89.4118 94.5728 98.821 93.7932C111.382 92.7526 121.803 83.68 123.41 70.973C124.201 64.7229 124.812 57.2665 124.812 49.1435C124.812 41.0206 124.201 33.5642 123.41 27.314C121.803 14.607 111.382 5.53446 98.821 4.49384C89.4118 3.71433 77.2541 3.00707 64.1058 3.00707C50.9575 3.00707 38.7997 3.71433 29.3905 4.49384Z" stroke="#E6E6FA" stroke-width="4.85647"/>
</svg>
